<?xml version="1.0" encoding="UTF-8" standalone="no"?>
<svg
   xmlns:dc="http://purl.org/dc/elements/1.1/"
   xmlns:cc="http://creativecommons.org/ns#"
   xmlns:rdf="http://www.w3.org/1999/02/22-rdf-syntax-ns#"
   xmlns:svg="http://www.w3.org/2000/svg"
   xmlns="http://www.w3.org/2000/svg"
   height="60.205795"
   width="70.329002"
   id="svg12"
   xml:space="preserve"
   enable-background="new 0 0 99.21 99.21"
   viewBox="0 0 70.329003 60.205797"
   y="0px"
   x="0px"
   version="1.1"><metadata
     id="metadata18"><rdf:RDF><cc:Work
         rdf:about=""><dc:format>image/svg+xml</dc:format><dc:type
           rdf:resource="http://purl.org/dc/dcmitype/StillImage" /><dc:title></dc:title></cc:Work></rdf:RDF></metadata><defs
     id="defs16" /><g
     style="fill:#ffffff"
     transform="translate(-14.44,-19.502)"
     id="g6"><polygon
       style="fill:#ffffff"
       id="polygon2"
       points="64.469,39.23 62.862,42.491 62.537,43.151 61.809,43.257 58.209,43.781 60.815,46.327 61.342,46.841 61.217,47.565 60.604,51.155 63.817,49.463 64.469,49.119 65.121,49.463 68.335,51.155 67.721,47.565 67.597,46.841 68.123,46.327 70.729,43.781 67.13,43.257 66.401,43.151 66.076,42.491 " /><path
       style="fill:#ffffff"
       id="path4"
       d="M 76.266,19.502 H 22.944 c -4.677,0 -8.504,3.827 -8.504,8.504 v 34.139 c 0,4.677 3.827,8.504 8.504,8.504 h 1.962 l 7.276,8.397 c 1.077,1.127 2.071,0.779 2.211,-0.773 l 0.024,-7.603 c 0,-0.008 -0.001,-0.014 0,-0.021 h 41.848 c 4.676,0 8.504,-3.827 8.504,-8.504 V 28.006 c 10e-4,-4.677 -3.828,-8.504 -8.503,-8.504 z m -34.787,37.867 -8.192,-4.307 -8.192,4.307 1.564,-9.125 -6.629,-6.464 9.16,-1.331 4.096,-8.3 4.097,8.3 9.159,1.331 -6.628,6.464 z m 29.607,-9.125 1.562,9.125 -8.178,-4.307 -8.179,4.307 1.562,-9.125 -6.616,-6.464 9.144,-1.331 4.09,-8.3 4.089,8.3 9.144,1.331 z" /></g></svg>